<svg width="85" height="198" viewBox="0 0 85 198" fill="none" xmlns="http://www.w3.org/2000/svg">
<path fill-rule="evenodd" clip-rule="evenodd" d="M19.1857 76.0018C15.0712 83.8443 8.08935 88.3078 3.58961 85.9709C-0.909498 83.6334 -1.22175 75.3809 2.89275 67.5377C7.00662 59.6952 13.9891 55.2316 18.4876 57.5692C22.9874 59.9061 23.299 68.1592 19.1857 76.0018" fill="#E1E2DF"/>
<path fill-rule="evenodd" clip-rule="evenodd" d="M23.8548 101.42C22.1463 101.42 19.3411 103.233 17.5895 105.468C15.8378 107.703 15.8023 109.514 17.5108 109.514C19.2193 109.514 22.0245 107.703 23.7761 105.468C25.5284 103.233 25.5633 101.42 23.8548 101.42Z" fill="#E3ED51"/>
<path fill-rule="evenodd" clip-rule="evenodd" d="M49.6075 5.47673C49.6075 5.47673 49.4272 11.3904 47.3563 13.1822C45.286 14.9741 44.4756 5.38705 44.4756 5.38705L49.6075 5.47673" fill="#040606"/>
<path fill-rule="evenodd" clip-rule="evenodd" d="M47.0066 46.1484C47.0308 43.7389 47.1101 41.0337 45.7703 38.8699C44.4306 36.7067 38.1734 38.0659 33.4535 37.8966C28.7341 37.7273 17.5686 34.7689 15.9026 38.7006C14.2372 42.6329 15.9026 45.5137 15.9026 45.5137C15.9026 45.5137 11.7646 48.942 9.23993 53.0891C6.71461 57.2361 4.65387 65.145 3.26269 67.8552C1.87152 70.566 0.531756 77.2944 1.35618 81.8647C2.1806 86.4349 1.97434 91.6399 3.72663 93.3326C5.4783 95.0253 10.7853 96.8272 18.5136 97.2593C26.2425 97.6913 43.2526 101.466 43.2526 90.9528C43.2526 80.4398 50.8064 73.652 47.0066 46.1484" fill="#132C47"/>
<path fill-rule="evenodd" clip-rule="evenodd" d="M47.0065 46.1484C47.0256 44.2113 47.0808 42.0828 46.4055 40.1988C44.0401 40.2322 41.2007 40.5506 38.7687 40.4634C34.0493 40.2941 22.8838 37.3357 21.2184 41.2674C19.5531 45.1991 21.2184 48.0805 21.2184 48.0805C21.2184 48.0805 17.0792 51.5082 14.5551 55.6552C12.0304 59.8023 9.96905 67.7112 8.57788 70.422C7.1867 73.1328 5.84694 79.8606 6.67137 84.4315C7.47802 88.902 7.29904 93.98 8.93012 95.7832C11.4351 96.4925 14.6757 97.0451 18.5135 97.2593C26.2424 97.6913 43.2525 101.466 43.2525 90.9528C43.2525 80.4398 50.8063 73.652 47.0065 46.1484Z" fill="#2A2A2A"/>
<path fill-rule="evenodd" clip-rule="evenodd" d="M75.0498 188.763C75.0498 188.763 75.7625 194.636 70.1413 194.454C64.5208 194.271 59.9868 193.533 59.9868 193.533V194.454H51.0679V190.27L75.0498 188.763" fill="#642815"/>
<path fill-rule="evenodd" clip-rule="evenodd" d="M52.7199 106.247L60.7763 179.031H51.5864L37.8733 127.095L26.485 181.909H17.2259L17.1599 106.247H52.7199" fill="#132C47"/>
<path fill-rule="evenodd" clip-rule="evenodd" d="M48.1655 69.1173C50.1323 74.7176 54.0666 80.049 60.4919 79.5102C66.9178 78.9715 60.4919 62.2777 60.4919 62.2777L48.1655 69.1173Z" fill="#F57D5C"/>
<path fill-rule="evenodd" clip-rule="evenodd" d="M62.3773 68.3259C61.5491 65.0252 60.4918 62.2777 60.4918 62.2777L54.651 65.5185C54.5621 69.334 55.6296 73.2353 60.3064 73.428L62.3773 68.3259" fill="#F8A074"/>
<path fill-rule="evenodd" clip-rule="evenodd" d="M30.2135 31.6152L28.7341 49.1907H40.9964C40.9964 49.1907 38.1963 39.5222 38.1963 34.561L30.2135 31.6152" fill="#F57D5C"/>
<path fill-rule="evenodd" clip-rule="evenodd" d="M30.2135 31.6153L29.905 35.2811C32.6772 38.1138 36.3614 40.7438 39.1768 41.8289C38.6411 39.2646 38.1962 36.5392 38.1962 34.5611L30.2135 31.6153Z" fill="#F57D5C"/>
<path fill-rule="evenodd" clip-rule="evenodd" d="M47.4007 8.19693C47.4007 8.19693 51.8681 37.342 37.3242 37.342C22.7797 37.342 24.4908 17.4416 24.4908 12.4312V8.19693H47.4007Z" fill="#F57D5C"/>
<path fill-rule="evenodd" clip-rule="evenodd" d="M22.746 19.9774C27.2458 20.3343 30.5397 17.3702 30.5397 14.9208C30.5397 12.4715 29.1599 10.0657 29.1599 10.0657C29.1599 10.0657 33.8545 15.1943 41.5942 15.0604C49.3338 14.9265 52.7585 10.9392 52.3079 5.92118C52.0165 2.66592 49.0191 -5.775e-05 46.2596 -5.775e-05C43.4994 -5.775e-05 38.6995 2.04884 35.3396 2.04884C31.9797 2.04884 28.246 0.623321 25.8832 2.62801C23.5197 4.63208 23.6999 6.63615 23.6999 6.63615C23.6999 6.63615 17.9512 8.06166 17.9512 13.0058C17.9512 17.9493 21.7242 20.302 22.607 20.2547L22.746 19.9774" fill="#040606"/>
<path fill-rule="evenodd" clip-rule="evenodd" d="M35.2393 21.7655C35.7274 21.7655 36.1234 22.1773 36.1234 22.6851C36.1234 23.1929 35.7274 23.6047 35.2393 23.6047C34.7513 23.6047 34.3552 23.1929 34.3552 22.6851C34.3552 22.1773 34.7513 21.7655 35.2393 21.7655Z" fill="#040606"/>
<path fill-rule="evenodd" clip-rule="evenodd" d="M44.1321 21.8835C44.6202 21.8835 45.0156 22.2954 45.0156 22.8032C45.0156 23.3116 44.6202 23.7234 44.1321 23.7234C43.6441 23.7234 43.248 23.3116 43.248 22.8032C43.248 22.2954 43.6441 21.8835 44.1321 21.8835Z" fill="#040606"/>
<path fill-rule="evenodd" clip-rule="evenodd" d="M40.7837 22.0093C42.2206 24.5837 43.1846 26.6231 38.7414 27.4095C38.53 27.4341 38.3435 27.3261 38.3257 27.1695C38.3073 27.0122 38.464 26.865 38.6754 26.841C42.3932 26.1861 41.3378 24.5275 40.0837 22.2815C39.9961 22.1419 40.0818 21.967 40.2754 21.8924C40.4683 21.8167 40.6961 21.8691 40.7837 22.0093Z" fill="#F57D5C"/>
<path fill-rule="evenodd" clip-rule="evenodd" d="M14.373 52.6841C15.6055 50.8613 29.1987 43.668 29.1987 43.668C29.1987 43.668 31.3845 48.1758 35.5758 48.1758C39.767 48.1758 39.4745 43.2019 39.4745 43.2019C39.4745 43.2019 53.8813 47.0143 55.2375 48.4821C56.5932 49.9499 62.5717 72.781 62.5717 72.781C62.5717 72.781 58.6272 75.8177 50.9847 75.3623C50.9847 75.3623 52.8334 94.1429 53.4503 98.1927C54.066 102.242 55.3854 105.163 55.016 105.62C52.5123 108.713 44.4667 109.872 40.9177 110.348C32.3745 111.496 22.7226 110.087 15.0134 106.13C14.0271 105.624 16.5302 84.0695 17.2696 80.2218C17.2696 80.2218 7.96297 77.9948 7.9014 77.3872C7.83984 76.7796 13.2021 54.3035 14.373 52.6841Z" fill="#B9E5D1"/>
<path fill-rule="evenodd" clip-rule="evenodd" d="M56.4223 69.0851C55.4773 69.2487 54.425 69.363 53.2674 69.3977L52.7432 49.7285C56.6552 56.3034 56.5391 66.3117 56.4223 69.0851Z" fill="#08B783"/>
<path fill-rule="evenodd" clip-rule="evenodd" d="M27.7593 44.4392L28.0963 44.2579C28.6446 45.463 29.7686 46.8083 31.1598 47.8138C32.5611 48.8263 34.2284 49.4869 35.8341 49.293C38.9807 48.9141 40.045 47.277 40.2856 45.6355C40.4011 44.8472 40.3306 44.0571 40.2081 43.399L40.6276 43.5127C40.7362 44.1607 40.7895 44.9173 40.6784 45.674C40.4188 47.4431 39.2745 49.2072 35.8918 49.6145C34.156 49.8236 32.3796 49.1276 30.8983 48.0576C29.4887 47.0395 28.3432 45.6772 27.7593 44.4392" fill="#08B783"/>
<path fill-rule="evenodd" clip-rule="evenodd" d="M58.1315 69.9129C57.2131 74.3638 58.7382 78.286 61.0433 78.4167C63.3477 78.5481 65.5405 77.487 68.9499 71.2399C72.3593 64.9934 75.5726 48.892 76.0968 47.9762C76.6217 47.061 81.6704 47.9225 83.113 46.1452C84.5549 44.3685 85.5386 36.202 83.113 36.202C80.6867 36.202 72.9064 39.4143 71.2232 45.8225C69.5401 52.2307 62.5716 57.3144 58.1315 69.9129" fill="#F57D5C"/>
<path fill-rule="evenodd" clip-rule="evenodd" d="M59.4668 173.726C62.7879 174.95 60.9576 181.518 61.7712 182.742C62.5842 183.967 64.6171 184.802 67.6672 184.189C70.7168 183.577 75.867 184.134 75.867 187.808C75.867 191.481 74.5584 192.817 67.6672 192.817C60.7761 192.817 51.2441 192.828 50.8227 191.537C50.4013 190.244 50.3867 179.011 51.2479 177.786C51.517 177.465 53.812 178.122 54.6986 177.343C56.0263 176.176 56.3734 173.55 59.4668 173.726Z" fill="#B9E5D1"/>
<path fill-rule="evenodd" clip-rule="evenodd" d="M69.1263 184.006C67.6006 184.201 66.6239 185.415 66.0311 186.469C65.953 186.637 65.7252 186.721 65.5202 186.658C65.3158 186.594 65.2124 186.407 65.2904 186.239C66.059 184.873 67.1798 183.584 69.1263 183.356C69.3453 183.356 69.5224 183.501 69.5224 183.681C69.5224 183.86 69.3453 184.006 69.1263 184.006" fill="#040606"/>
<path fill-rule="evenodd" clip-rule="evenodd" d="M65.6605 184.348C64.4693 184.514 63.2958 185.33 62.6967 186.163C62.6066 186.326 62.3724 186.399 62.1724 186.325C61.9732 186.251 61.8843 186.059 61.9744 185.895C62.7563 184.802 64.1031 183.893 65.6605 183.698C65.8795 183.698 66.0566 183.844 66.0566 184.023C66.0566 184.202 65.8795 184.348 65.6605 184.348" fill="#040606"/>
<path fill-rule="evenodd" clip-rule="evenodd" d="M62.6599 183.66C62.1097 183.623 61.1215 184.439 60.8194 184.716C60.7058 184.87 60.4627 184.919 60.2755 184.826C60.0883 184.733 60.0286 184.533 60.1416 184.379C60.7712 183.783 61.7905 182.913 62.8713 183.032C63.082 183.081 63.2051 183.26 63.1474 183.433C63.0883 183.606 62.8706 183.708 62.6599 183.66" fill="#040606"/>
<path fill-rule="evenodd" clip-rule="evenodd" d="M61.6202 180.163L61.6913 180.196C62.9136 179.985 63.9056 179.584 63.9881 178.93C63.4271 178.988 62.5468 179.489 61.6202 180.163ZM60.0348 180.368C60.0729 180.339 60.1104 180.31 60.1484 180.281C58.5408 179.621 57.0672 179.261 56.8387 179.993C57.1071 180.279 58.5282 180.435 60.0348 180.368ZM57.0589 183.634C57.6123 182.688 58.3631 181.825 59.1806 181.083C56.6305 180.879 54.6586 179.89 56.9237 179.083C57.7799 178.778 59.2885 179.184 60.8085 179.81C63.3211 178.122 65.6935 177.695 64.5879 179.491C64.2261 180.079 63.5826 180.483 62.8045 180.741C63.8599 181.288 64.7567 181.833 65.22 182.166C65.3584 182.306 65.3336 182.51 65.1642 182.624C64.9947 182.738 64.7453 182.717 64.6069 182.579C64.3385 182.387 63.1263 181.678 61.7344 180.998C61.3041 181.068 60.8567 181.106 60.4093 181.117C59.2447 182.101 58.1975 183.174 57.8313 183.778C57.7824 183.953 57.5704 184.062 57.3572 184.023C57.144 183.983 57.01 183.809 57.0589 183.634" fill="#040606"/>
<path fill-rule="evenodd" clip-rule="evenodd" d="M47.0308 43.7389C49.6411 44.3478 51.052 46.2312 52.2521 50.5197C53.4516 54.8076 55.3918 67.2097 54.792 73.7872C54.1923 80.3647 52.1449 86.783 52.1449 86.783C52.1449 86.783 50.8762 74.1346 50.5588 71.353C50.2409 68.5714 46.9952 51.8234 45.5133 48.2889C44.032 44.7532 43.0438 44.277 43.2907 43.7389C43.5376 43.202 47.0308 43.7389 47.0308 43.7389" fill="#132C47"/>
<path fill-rule="evenodd" clip-rule="evenodd" d="M14.7735 190.58L13.0828 190.637C13.183 193.5 12.4456 197.532 21.4076 197.651C30.369 197.77 29.7312 194.74 29.7673 191.554L14.7735 190.58Z" fill="#642815"/>
<path fill-rule="evenodd" clip-rule="evenodd" d="M21.8417 45.7769C24.2985 44.4998 25.4682 44.6527 25.7595 45.0108C26.0508 45.3689 28.2264 48.1265 28.7341 52.4169C29.2425 56.7067 30.0815 65.9003 29.6773 71.6466C29.2736 77.3922 22.974 90.1865 15.9026 90.9526V79.9155C16.4744 80.0601 16.953 80.17 17.2696 80.2218C19.0181 80.5091 23.3224 80.6247 25.0868 79.8428C25.0868 79.8428 26.0108 73.0917 26.0108 69.6722C26.0108 66.8963 24.1735 54.1096 22.4948 51.6502C20.8155 49.1907 20.0069 48.688 19.9454 48.2793C19.8832 47.8707 20.2253 46.7218 21.8417 45.7769" fill="#132C47"/>
<path fill-rule="evenodd" clip-rule="evenodd" d="M20.8052 21.9713C20.8052 23.9179 22.4001 25.2695 24.4278 25.2695C26.4556 25.2695 27.1372 22.548 27.1372 21.9277C27.1372 21.3069 26.2518 18.8373 23.9715 18.8373C21.6918 18.8373 20.6821 20.6841 20.8052 21.9713" fill="#F57D5C"/>
<path fill-rule="evenodd" clip-rule="evenodd" d="M23.5534 20.1581C24.7351 20.0198 26.047 20.724 25.9124 22.099C25.8896 22.3308 24.3658 22.3416 24.6926 22.7553C25.0855 23.253 25.7741 23.0427 25.9746 22.8772C25.8801 23.39 24.4781 23.7766 24.1614 22.874C24.0078 22.435 24.3391 21.8755 25.2606 21.8552C25.0677 20.8144 24.3639 20.4942 23.7051 20.5921C22.3564 20.7923 22.2136 21.4201 22.1216 21.811C21.9014 21.3001 22.2422 20.3129 23.5534 20.1581" fill="#F57D5C"/>
<path fill-rule="evenodd" clip-rule="evenodd" d="M10.3694 78.3536C9.60213 80.832 8.76628 84.7435 9.72906 88.0644C11.2745 93.3964 21.6829 120.31 21.6829 120.31L26.0106 117.263C26.0106 117.263 20.451 89.1678 20.1419 86.7362C20.1419 86.7362 21.6803 84.1877 22.6869 80.3507C20.755 80.5295 18.4626 80.1499 17.2695 79.9547C16.0769 79.7583 12.4543 78.9745 10.3694 78.3536" fill="#F57D5C"/>
<path fill-rule="evenodd" clip-rule="evenodd" d="M74.0558 33.5222L82.8681 34.1873C83.5186 34.2366 84.0022 34.714 83.9426 35.2484L82.1509 51.2524C82.0913 51.7874 81.5099 52.184 80.8594 52.1348L72.0465 51.4697C71.396 51.4205 70.9124 50.943 70.972 50.4086L72.7637 34.4046C72.8233 33.8696 73.4047 33.4729 74.0558 33.5222Z" fill="#2A2A2A"/>
<path fill-rule="evenodd" clip-rule="evenodd" d="M81.8005 27.0172C82.3044 27.0551 82.6782 27.4246 82.6325 27.8389L82.366 30.2137C82.3203 30.6274 81.8703 30.935 81.3664 30.8971C80.8625 30.8586 80.488 30.4891 80.535 30.076L80.8003 27.7C80.8466 27.2869 81.2966 26.9793 81.8005 27.0172" fill="#040606"/>
<path fill-rule="evenodd" clip-rule="evenodd" d="M81.7516 22.4542C82.0759 22.4788 82.3152 22.7144 82.2853 22.981C82.2555 23.2475 81.968 23.4439 81.6437 23.4193C81.3188 23.3947 81.0801 23.1584 81.1099 22.8925C81.1398 22.626 81.4273 22.4296 81.7516 22.4542Z" fill="#252627"/>
<path fill-rule="evenodd" clip-rule="evenodd" d="M81.4827 23.8594C81.6744 23.8739 81.8153 24.0135 81.7975 24.1714C81.7797 24.3286 81.6103 24.4442 81.4186 24.4297C81.2269 24.4151 81.086 24.2762 81.1038 24.1183C81.1209 23.961 81.2904 23.8448 81.4827 23.8594" fill="white"/>
<path fill-rule="evenodd" clip-rule="evenodd" d="M81.6171 22.6569C81.9414 22.6815 82.1806 22.9171 82.1502 23.1842C82.121 23.4501 81.8335 23.6466 81.5092 23.6219C81.1842 23.5973 80.9456 23.3617 80.9754 23.0952C81.0052 22.8286 81.2921 22.6322 81.6171 22.6569" fill="#252627"/>
<path fill-rule="evenodd" clip-rule="evenodd" d="M22.5539 178.604C28.943 178.858 26.9337 184.167 26.7274 186.464C26.5218 188.76 29.6646 189.522 29.7674 191.554C29.8702 193.584 28.0158 196.013 21.6006 196.013C15.1861 196.013 13.074 193.697 13.074 190.243C13.074 186.789 16.5418 186.468 16.5418 184.348C16.5418 182.228 14.7127 178.742 22.5539 178.604" fill="#B9E5D1"/>
<path fill-rule="evenodd" clip-rule="evenodd" d="M18.3042 189.39C19.7233 188.482 22.0347 188.656 23.4526 189.473C23.6068 189.599 23.6068 189.805 23.4526 189.932C23.2977 190.059 23.047 190.059 22.8922 189.932C21.8773 189.371 19.8623 189.216 18.8443 189.866C18.6837 189.988 18.433 189.981 18.2845 189.85C18.1354 189.718 18.1443 189.512 18.3042 189.39Z" fill="#040606"/>
<path fill-rule="evenodd" clip-rule="evenodd" d="M18.8023 187.262C19.9929 186.673 21.9661 186.561 23.0653 187.377C23.2113 187.511 23.1973 187.716 23.0342 187.837C22.8718 187.956 22.6211 187.945 22.4751 187.811C21.7909 187.311 20.0583 187.402 19.3215 187.753C19.1565 187.871 18.9064 187.856 18.763 187.72C18.6195 187.585 18.6367 187.379 18.8023 187.262" fill="#040606"/>
<path fill-rule="evenodd" clip-rule="evenodd" d="M18.8582 185.548C19.7023 184.59 22.2295 184.501 23.2697 185.517C23.391 185.666 23.3421 185.869 23.1606 185.968C22.9791 186.068 22.7328 186.028 22.611 185.878C21.9566 185.241 19.9778 185.404 19.5608 185.847C19.4599 186.007 19.2212 186.069 19.027 185.986C18.8328 185.903 18.7573 185.707 18.8582 185.548" fill="#040606"/>
<path fill-rule="evenodd" clip-rule="evenodd" d="M22.4959 182.79C23.8979 182.852 25.1901 182.656 25.569 182.061C25.3088 181.529 23.9855 181.992 22.4959 182.79V182.79ZM20.578 182.555C19.7066 181.743 18.9863 181.108 18.2171 181.124C18.1961 181.136 18.1726 181.152 18.1676 181.169C18.0013 181.743 19.1399 182.263 20.578 182.555V182.555ZM17.18 185.768C18.1339 184.634 19.1621 183.758 20.175 183.097C18.0876 182.526 16.5987 181.432 17.6763 180.646C18.6309 179.95 20.1242 181.135 21.4735 182.356C24.8448 180.7 27.5777 181.36 26.0545 182.594C25.2282 183.265 23.9868 183.505 22.6978 183.474C23.1401 183.868 23.5323 184.185 23.8395 184.33C24.9115 184.838 25.2205 184.885 26.3769 185.231C26.5857 185.283 26.7031 185.466 26.639 185.637C26.5743 185.809 26.3528 185.905 26.1433 185.852L24.7744 185.443C23.4067 184.957 22.3531 184.156 21.471 183.375C19.93 184.304 18.4278 185.422 17.8997 186.04C17.8083 186.203 17.5735 186.275 17.3742 186.201C17.1762 186.125 17.0886 185.932 17.18 185.768" fill="#040606"/>
<path fill-rule="evenodd" clip-rule="evenodd" d="M20.9602 74.4373C21.8379 72.8475 25.0277 67.4114 25.4815 58.3808C25.8103 60.7474 26.0108 62.7558 26.0108 63.6723C26.0108 67.0918 25.0868 73.8429 25.0868 73.8429C24.1633 74.2522 22.5443 74.4158 20.9602 74.4373" fill="#08B783"/>
<path fill-rule="evenodd" clip-rule="evenodd" d="M27.8259 115.884C25.5189 118.588 23.5934 120.585 19.4668 121.016C19.2485 121.016 19.0708 120.871 19.0708 120.69C19.0708 120.511 19.2485 120.366 19.4668 120.366C23.1999 119.973 25.0683 117.987 27.1323 115.569C27.2382 115.412 27.4794 115.355 27.6711 115.442C27.8621 115.529 27.9319 115.726 27.8259 115.884Z" fill="#040606"/>
<path fill-rule="evenodd" clip-rule="evenodd" d="M83.6778 37.4046C83.6778 37.4046 79.623 33.9605 78.8125 34.7665C78.0021 35.573 82.3406 38.5194 82.3406 38.5194C82.3406 38.5194 77.6136 35.9659 77.4785 37.0408C77.3433 38.1165 82.0702 40.9384 82.0702 40.9384C82.0702 40.9384 77.7488 39.5944 77.4785 40.8039C77.2081 42.0134 81.5301 42.6854 81.5301 42.6854C81.5301 42.6854 77.0736 42.6854 76.8032 43.3575C76.5328 44.0295 82.611 45.5081 82.611 45.5081L83.6778 37.4046" fill="#F57D5C"/>
<path d="M33.2763 19.7305C33.3481 19.649 33.4229 19.5713 33.5029 19.4981C33.5454 19.4595 33.5892 19.4223 33.633 19.3856C33.6889 19.3389 33.6406 19.392 33.6133 19.3995C33.633 19.3938 33.6584 19.3661 33.6749 19.3541C33.7631 19.2909 33.8551 19.2334 33.9497 19.1804C33.9998 19.1519 34.0506 19.1254 34.102 19.1002C34.1255 19.0888 34.1484 19.078 34.1712 19.0673C34.1871 19.0604 34.2886 19.013 34.2118 19.049C34.142 19.0812 34.2213 19.0465 34.2359 19.0408C34.2601 19.0313 34.2842 19.0231 34.3083 19.0143C34.3622 18.9953 34.4175 18.9776 34.472 18.9618C34.5768 18.9322 34.6821 18.9075 34.7894 18.8886C34.8148 18.8842 34.8401 18.881 34.8649 18.8766C34.9398 18.8633 34.7589 18.886 34.8344 18.881C34.8922 18.8772 34.9487 18.8696 35.0064 18.8671C35.1213 18.8614 35.2362 18.8627 35.351 18.8703C35.6347 18.8879 35.9064 18.6088 35.8937 18.3296C35.8797 18.022 35.655 17.8092 35.351 17.7896C34.2956 17.7233 33.2046 18.1742 32.509 18.9669C32.3218 19.1791 32.2831 19.5246 32.509 19.7305C32.7134 19.9174 33.0771 19.9579 33.2763 19.7305" fill="#040606"/>
<path d="M42.9803 20.6425C43.0869 20.6097 43.1948 20.5819 43.304 20.5616C43.3383 20.5547 43.5077 20.5054 43.3662 20.5496C43.4157 20.5338 43.4817 20.5383 43.5325 20.5351C43.6442 20.5282 43.7559 20.5275 43.8669 20.5338C43.9228 20.5364 43.978 20.5421 44.0338 20.5465C44.1481 20.5553 43.9304 20.5282 44.0757 20.5528C44.1786 20.5705 44.2814 20.5926 44.3816 20.6204C44.4813 20.6475 44.6107 20.6722 44.6983 20.7265C44.5797 20.6532 44.7326 20.7423 44.7599 20.7555C44.8107 20.7795 44.8595 20.8054 44.9084 20.832C45.0061 20.8863 45.0994 20.9463 45.1902 21.0107C45.4225 21.1749 45.8046 21.0587 45.9334 20.8168C46.0806 20.5389 45.9867 20.2528 45.7385 20.0778C44.8722 19.4652 43.7051 19.2915 42.6915 19.6004C42.4199 19.6831 42.22 19.9818 42.312 20.2648C42.4009 20.537 42.689 20.7309 42.9803 20.6425" fill="#040606"/>
<path d="M35.6278 29.128C37.2252 30.4525 39.5709 30.6818 41.3746 29.6251C41.9763 29.2727 41.4305 28.3385 40.8269 28.6922C39.4687 29.4874 37.6162 29.3762 36.3951 28.3638C36.1704 28.1775 35.848 28.1446 35.6278 28.3638C35.4348 28.5558 35.4012 28.9404 35.6278 29.128Z" fill="#040606"/>
</svg>
